<svg xmlns="http://www.w3.org/2000/svg" width="1024" height="1024" viewBox="0 0 1024 1024" version="1.1"><path d="M 667.529 165.614 C 664.560 168.583, 665.727 170.833, 671.847 173.935 C 677.387 176.744, 679.309 176.184, 677.909 172.168 C 675.996 166.682, 670.151 162.991, 667.529 165.614 M 369.757 167.519 C 365.904 170.137, 364 172.755, 364 175.434 C 364 178.052, 367.449 177.199, 372.606 173.306 C 378.300 169.009, 378.997 168.156, 378.300 166.341 C 377.498 164.250, 373.822 164.757, 369.757 167.519 M 341.426 180.050 C 322.128 181.599, 308.231 190.829, 299.465 207.921 C 293.577 219.401, 293.727 216.217, 293.691 330.500 C 293.666 413.586, 293.932 436.648, 294.966 441 C 296.834 448.855, 300.525 455.803, 305.621 461.055 L 310.040 465.609 303.500 471.387 C 297.153 476.994, 289.780 486.388, 269.949 514.136 C 264.695 521.486, 255.470 534.375, 249.449 542.777 C 243.427 551.179, 237.600 559.525, 236.500 561.324 C 235.400 563.123, 232.002 568.173, 228.950 572.547 C 221.748 582.867, 220.900 584.979, 220.257 594.202 C 219.200 609.380, 222.973 620.197, 232.569 629.500 C 237.930 634.697, 239.770 635.802, 246.322 637.757 C 250.482 638.998, 257.894 640.298, 262.793 640.646 C 273.112 641.378, 300.866 639.033, 295 637.925 C 293.075 637.561, 291.950 637.182, 292.500 637.083 C 308.353 634.221, 320.536 633.949, 480 632.903 C 633.590 631.895, 690.618 632.191, 689.506 633.990 C 689.246 634.411, 690.447 635.039, 692.176 635.385 C 696.840 636.318, 694.712 637.433, 687.169 638.009 L 680.500 638.518 692.500 639.736 C 699.496 640.446, 722.638 641.038, 748 641.156 C 786.773 641.336, 792.200 641.167, 797.940 639.602 C 806.989 637.136, 811.572 634.562, 817.463 628.641 C 826.027 620.032, 829.840 608.470, 828.672 594.654 C 827.881 585.285, 825.912 579.890, 820.829 573.157 C 818.559 570.151, 814.671 564.723, 812.188 561.095 C 809.706 557.468, 804.460 550.225, 800.530 545 C 796.600 539.775, 791.386 532.755, 788.942 529.399 C 765.986 497.873, 760.570 490.548, 754.347 482.617 C 750.414 477.603, 745.126 471.790, 742.597 469.700 C 740.069 467.610, 738 465.500, 738 465.011 C 738 464.522, 739.761 462.087, 741.914 459.600 C 744.066 457.113, 746.848 452.473, 748.095 449.289 C 750.216 443.874, 750.406 441.478, 751.040 412.178 C 751.413 394.951, 751.614 345.001, 751.488 301.178 L 751.258 221.500 748.725 214.886 C 744.933 204.986, 743.243 202.137, 737.651 196.225 C 732.150 190.408, 723.765 185.002, 715 181.621 L 709.500 179.500 530 179.411 C 431.275 179.362, 346.417 179.650, 341.426 180.050 M 389.500 189 C 338.023 189.468, 334.212 189.624, 330 191.430 C 322.829 194.505, 318.703 197.424, 313.768 202.913 C 308.318 208.975, 305.396 214.641, 304.044 221.766 C 303.445 224.925, 302.982 267.820, 302.862 331.231 C 302.667 434.657, 302.682 435.546, 304.749 441.229 C 306.951 447.281, 310.507 453, 312.068 453 C 312.581 453, 313.014 451.762, 313.030 450.250 C 313.055 447.986, 313.233 447.795, 314.034 449.167 C 315.580 451.817, 324.383 457.871, 329.120 459.542 C 332.856 460.861, 341.106 462.410, 350 463.465 C 351.375 463.628, 353.357 464.115, 354.404 464.547 C 355.451 464.979, 358.376 464.918, 360.904 464.413 C 363.432 463.908, 367.750 463.761, 370.500 464.088 C 373.250 464.414, 376.850 464.291, 378.500 463.814 C 381.461 462.958, 510.951 462.618, 511.797 463.464 C 512.037 463.704, 509.958 464.202, 507.177 464.571 C 504.325 464.949, 501.891 465.843, 501.592 466.621 C 500.926 468.356, 499.443 468.237, 526 468.577 C 538.375 468.735, 549.175 468.966, 550 469.090 C 550.825 469.214, 557.125 469.204, 564 469.068 C 576.393 468.823, 576.458 468.810, 571.621 467.481 C 556.835 463.421, 567.477 462.614, 632.823 462.839 C 690.146 463.037, 703.620 462.389, 713.727 458.951 C 722.040 456.122, 725.839 453.399, 729.005 448 C 735.644 436.680, 735.253 442.962, 735.631 341.500 C 736.006 241.098, 735.569 227.684, 731.544 216.020 C 728.788 208.034, 728.824 205.611, 731.681 206.708 C 733.272 207.318, 733.252 207.094, 731.469 204.344 C 727.564 198.319, 721.264 193.933, 711.500 190.442 C 706.799 188.761, 698.665 188.650, 575.500 188.577 C 503.450 188.535, 419.750 188.725, 389.500 189 M 430 202.029 C 354.365 202.498, 343.947 202.747, 339.705 204.195 C 329.282 207.752, 319.489 217.853, 316.626 228 C 315.293 232.725, 314.995 246.820, 314.510 328 C 313.879 433.522, 313.637 429.204, 320.777 439.868 C 322.825 442.927, 326.865 447.345, 329.755 449.688 C 339.588 457.658, 324.052 457.094, 525.109 456.780 L 704.500 456.500 710.500 453.341 C 718.408 449.178, 722.290 445.187, 726.242 437.161 L 729.500 430.542 729.500 329.521 L 729.500 228.500 726.914 223 C 723.299 215.313, 715.378 206.964, 709.372 204.509 C 704.752 202.621, 701.789 202.505, 652 202.258 C 623.125 202.115, 580.600 201.886, 557.500 201.749 C 534.400 201.612, 477.025 201.738, 430 202.029 M 350 211.057 C 341.660 211.800, 339.026 212.960, 333.102 218.501 C 323.873 227.134, 324.500 219.004, 324.500 330 L 324.500 427.500 326.894 432 C 330.669 439.094, 334.013 442.958, 338.419 445.316 L 342.500 447.500 504.316 447.762 C 673.375 448.036, 701.914 447.589, 708 444.572 C 712.344 442.420, 717.533 435.735, 720.095 428.992 C 721.978 424.036, 722.030 420.876, 721.769 327.688 L 721.500 231.500 718.570 226.212 C 714.849 219.494, 708.283 213.416, 703.341 212.114 C 699.195 211.022, 361.730 210.012, 350 211.057 M 350.256 234.645 C 346.624 236.435, 343.566 240.844, 342.517 245.803 C 341.559 250.331, 345.709 258.806, 350.177 261.445 C 360.094 267.304, 373.006 259.754, 372.996 248.102 C 372.987 236.538, 360.912 229.392, 350.256 234.645 M 684.750 235.067 C 681.667 236.886, 682.645 239, 686.570 239 C 689.695 239, 690.099 238.721, 689.820 236.760 C 689.459 234.234, 687.354 233.530, 684.750 235.067 M 696.362 235.500 C 694.919 239.259, 699.325 241.724, 701.912 238.606 C 702.805 237.530, 702.703 236.846, 701.463 235.606 C 699.446 233.589, 697.113 233.541, 696.362 235.500 M 568 237.632 C 551.015 239.151, 541.226 241.965, 531.392 248.155 C 528.033 250.270, 524.765 252, 524.131 252 C 523.496 252, 520.387 250.232, 517.222 248.071 C 514.056 245.910, 507.873 242.912, 503.483 241.408 C 496.554 239.035, 493.520 238.616, 480.500 238.231 C 462.788 237.708, 452.973 239.113, 436.494 244.529 C 425.140 248.261, 425.802 248.203, 411 246.746 C 408.607 246.511, 408.487 246.761, 408.206 252.615 L 407.912 258.729 402.265 259.312 C 395.916 259.967, 392.462 262.076, 389.500 267.105 C 387.561 270.396, 387.491 272.581, 387.203 338.500 C 387.040 375.900, 387.167 407.930, 387.485 409.678 C 387.803 411.426, 389.355 414.239, 390.933 415.928 L 393.802 419 419.151 418.946 C 433.093 418.917, 456.377 418.525, 470.894 418.076 L 497.289 417.259 500.137 420.503 C 506.214 427.424, 520.736 430.672, 531.549 427.529 C 538.501 425.508, 543.649 422.978, 546.723 420.073 C 548.941 417.977, 549.079 417.973, 598.723 418.626 C 654.161 419.355, 653.961 419.375, 657.985 412.810 C 659.981 409.555, 660.011 408.320, 659.757 338.330 L 659.500 267.160 657 264.451 C 653.692 260.866, 649.081 259, 643.532 259 L 639 259 639 253.123 L 639 247.247 627.250 246.731 C 617.610 246.308, 612.986 245.505, 601.500 242.258 C 588.068 238.460, 576.537 236.868, 568 237.632 M 355.540 246.579 C 352.052 251.903, 356.394 256.357, 361.461 252.652 C 363.136 251.427, 363.252 250.849, 362.260 248.671 C 361.621 247.270, 360.223 245.654, 359.152 245.081 C 357.548 244.223, 356.911 244.487, 355.540 246.579 M 457.500 248.495 C 453.100 249.285, 443.899 251.522, 437.052 253.466 C 430.206 255.410, 423.681 257.006, 422.552 257.014 C 421.424 257.021, 419.600 257.270, 418.500 257.566 C 416.530 258.096, 416.496 259.053, 416.258 321.552 L 416.016 385 418.113 385 C 419.267 385, 423.876 383.900, 428.355 382.555 C 447.313 376.863, 471.522 373.968, 484.082 375.891 C 498.057 378.030, 511.791 383.586, 516.272 388.912 L 518.796 391.912 519.454 377.706 C 519.816 369.893, 519.929 340.640, 519.707 312.699 L 519.303 261.898 515.901 259.010 C 511.097 254.929, 503.672 251.004, 497.650 249.361 C 489.932 247.255, 467.144 246.764, 457.500 248.495 M 555.500 248.475 C 546.651 250.111, 539.807 252.739, 533.303 256.997 L 528.192 260.342 527.812 325.421 C 527.603 361.215, 527.567 390.694, 527.731 390.932 C 527.896 391.169, 529.486 389.979, 531.265 388.287 C 538.898 381.028, 553.791 376.172, 571.083 375.303 C 584.717 374.618, 593.975 375.784, 613 380.582 C 629.411 384.721, 631.851 384.876, 631.393 381.750 C 631.211 380.512, 630.895 352.068, 630.689 318.541 L 630.315 257.582 621.907 256.348 C 617.283 255.669, 609.900 253.954, 605.500 252.535 C 588.819 247.158, 570.615 245.680, 555.500 248.475 M 639 270.945 C 639 272.350, 639.648 273, 641.050 273 C 642.177 273, 644.458 273.702, 646.118 274.561 L 649.136 276.122 648.818 272.811 C 648.512 269.623, 648.324 269.489, 643.750 269.195 C 639.526 268.924, 639 269.118, 639 270.945 M 398.265 335.250 L 398.500 400.500 401.905 400.295 C 403.777 400.183, 405.708 399.692, 406.196 399.204 C 406.684 398.716, 407.022 392.733, 406.948 385.909 C 406.874 379.084, 406.898 350.212, 407.002 321.750 L 407.191 270 402.610 270 L 398.029 270 398.265 335.250 M 473 271.017 C 467.225 271.423, 462.358 271.810, 462.184 271.877 C 462.010 271.945, 462.010 273.192, 462.184 274.650 L 462.500 277.299 484.346 277.400 C 496.361 277.455, 506.395 277.169, 506.645 276.765 C 507.366 275.599, 501.018 272.170, 497.084 271.602 C 489.207 270.463, 483.027 270.313, 473 271.017 M 554.210 272.502 C 546.458 273.907, 542 276.105, 542 278.523 C 542 280.438, 542.375 280.425, 563.133 277.803 C 580.557 275.601, 580.900 275.596, 592.133 277.364 C 598.385 278.347, 606.329 279.852, 609.786 280.707 C 616.425 282.349, 617.403 282.213, 616.469 279.779 C 615.587 277.480, 612.157 276.285, 598.543 273.528 C 584.282 270.641, 566.723 270.234, 554.210 272.502 M 436.594 276.041 C 434.995 276.519, 432.183 278.369, 430.344 280.151 C 427.159 283.238, 427 283.737, 427 290.619 C 427 296.957, 427.322 298.230, 429.619 300.959 C 435.426 307.860, 442.723 308.938, 448.614 303.766 C 453.252 299.694, 455 295.544, 455 288.609 C 455 282.013, 451.927 277.630, 446.186 276.035 C 441.919 274.850, 440.573 274.851, 436.594 276.041 M 577 288 C 575.900 289.100, 575 290.434, 575 290.965 C 575 293.587, 584.431 295.169, 586.676 292.924 C 587.443 292.157, 589.166 292.269, 592.691 293.316 C 600.665 295.684, 615.841 297.559, 617.072 296.328 C 620.093 293.307, 606.531 289, 594 289 C 589.215 289, 586.882 288.562, 586 287.500 C 584.233 285.371, 579.358 285.642, 577 288 M 467.250 288.723 C 464.633 289.048, 464 289.579, 464 291.447 C 464 294.493, 466.693 294.990, 479.500 294.303 C 486.314 293.937, 492.346 294.264, 498.434 295.329 C 503.348 296.188, 507.735 296.664, 508.184 296.386 C 509.653 295.478, 509.040 293.092, 507.066 292.035 C 501.131 288.859, 480.192 287.117, 467.250 288.723 M 549.076 290.552 C 541.924 292.103, 539.921 293.772, 541.765 296.644 C 542.310 297.492, 545.487 297.334, 554.021 296.035 C 568.458 293.836, 570 293.344, 570 290.933 C 570 289.193, 569.276 289.008, 562.750 289.079 C 558.763 289.123, 552.609 289.786, 549.076 290.552 M 640.204 305.588 C 640.041 308.111, 640.266 309.952, 640.704 309.680 C 641.142 309.407, 641.460 312.180, 641.411 315.842 C 641.339 321.148, 641.400 321.434, 641.710 317.250 C 641.988 313.509, 642.517 312, 643.550 312 C 644.347 312, 645 311.523, 645 310.941 C 645 310.359, 644.573 310.146, 644.051 310.469 C 643.059 311.082, 641.621 305.413, 642.179 303.089 C 642.355 302.352, 642.050 301.582, 641.500 301.376 C 640.948 301.170, 640.367 303.059, 640.204 305.588 M 471.500 305.942 C 463.864 306.475, 463.487 306.615, 463.206 309.022 L 462.911 311.544 476.706 311.213 C 487.292 310.959, 491.779 311.260, 496 312.508 C 504.270 314.954, 506.697 315.299, 507.418 314.133 C 508.536 312.323, 504.322 309.146, 498.789 307.627 C 492.270 305.837, 482.055 305.206, 471.500 305.942 M 559 305.686 C 552.198 306.811, 542 310.405, 542 311.677 C 542 313.992, 544.425 314.200, 552.345 312.564 C 560.739 310.830, 599.221 310.387, 606.500 311.941 C 608.700 312.410, 611.962 313.122, 613.750 313.522 C 616.612 314.163, 617 314.001, 617 312.160 C 617 309.531, 615.280 308.640, 606.303 306.620 C 600.901 305.404, 594.414 305.034, 580.303 305.136 C 569.961 305.211, 560.375 305.458, 559 305.686 M 432 328.644 C 428.198 330.208, 427.146 332.267, 426.538 339.335 C 425.733 348.698, 426.735 351.863, 431.587 355.275 C 437.239 359.251, 441.664 359.729, 445.946 356.828 C 451.546 353.033, 453.221 349.096, 453.780 338.411 L 454.273 329 451.287 329 C 449.645 329, 444.971 328.781, 440.901 328.513 C 436.830 328.246, 432.825 328.304, 432 328.644 M 467 329.361 C 467 330.786, 468.468 330.992, 478.250 330.937 C 491.679 330.861, 490.068 329.136, 475.750 328.259 C 468.092 327.789, 467 327.927, 467 329.361 M 571.299 329.106 C 569.539 329.615, 567.782 330.544, 567.395 331.170 C 567.008 331.797, 567.129 332.038, 567.664 331.707 C 568.200 331.377, 575.357 330.868, 583.569 330.577 C 601.433 329.945, 601.281 329.962, 597.500 329 C 593.270 327.924, 575.134 327.997, 571.299 329.106 M 353 332 C 350.602 334.398, 350.433 337.746, 352.557 340.777 C 354.556 343.632, 357.087 343.600, 359.826 340.686 C 362.660 337.669, 362.638 333.560, 359.777 331.557 C 356.840 329.499, 355.407 329.593, 353 332 M 688.039 332.189 C 685.596 334.811, 685.470 336.798, 687.557 339.777 C 690.267 343.647, 695.432 342.075, 697.292 336.814 C 698.062 334.638, 694.437 330, 691.966 330 C 690.928 330, 689.160 330.985, 688.039 332.189 M 546.603 337.477 C 541.415 339.326, 539.620 341.228, 540.488 343.961 C 540.981 345.515, 541.659 345.942, 542.840 345.442 C 550.158 342.341, 556.967 341.787, 581 342.335 C 594.475 342.642, 608.335 343.419, 611.801 344.062 C 618.705 345.344, 619.491 345.122, 618.550 342.159 C 617.450 338.691, 606.787 337.500, 576.845 337.500 C 562.185 337.500, 550.399 337.163, 550.654 336.750 C 551.233 335.815, 551.301 335.802, 546.603 337.477 M 468.250 337.639 C 467.003 337.916, 466 338.892, 466 339.827 C 466 341.297, 467.410 341.538, 476.904 341.696 C 488.859 341.895, 498.903 343.381, 503.158 345.582 C 506.895 347.514, 507.180 347.410, 506.816 344.250 C 506.331 340.031, 498.792 337.884, 483 337.468 C 476.125 337.286, 469.488 337.363, 468.250 337.639 M 640.988 350 C 640.895 355.225, 640.635 366.813, 640.411 375.750 C 640.073 389.232, 640.242 392, 641.408 392 C 642.292 392, 642.630 391.301, 642.319 390.113 C 642.048 389.075, 642.315 387.923, 642.913 387.554 C 643.594 387.133, 644 387.900, 644 389.608 C 644 393.227, 644.580 392.388, 645.299 387.728 C 645.673 385.308, 645.519 384.179, 644.872 384.579 C 644.224 384.979, 643.923 382.747, 644.031 378.352 C 644.197 371.551, 642.304 343.417, 641.551 341.500 C 641.335 340.950, 641.081 344.775, 640.988 350 M 467.250 351.639 C 465.703 351.983, 465 352.868, 465 354.471 C 465 356.780, 465.137 356.807, 478.250 357.152 C 490.878 357.484, 491.821 357.656, 498.338 360.823 C 505.196 364.156, 508 364.368, 508 361.554 C 508 357.431, 492.976 352.195, 479.390 351.583 C 473.951 351.338, 468.488 351.363, 467.250 351.639 M 565.500 351.584 C 550.568 353.713, 541 357.397, 541 361.017 C 541 363.588, 541.856 363.525, 550.379 360.331 C 556.986 357.854, 558.904 357.629, 576.969 357.221 C 596.425 356.780, 604.138 357.544, 610 360.490 C 615.184 363.096, 617 363.281, 617 361.204 C 617 359.055, 608.914 354.932, 601 353.045 C 596.250 351.912, 570.602 350.857, 565.500 351.584 M 688.217 356.269 C 685.449 359.215, 685.427 361.002, 688.115 364.420 C 690.843 367.887, 693.833 367.471, 696.271 363.285 C 697.906 360.477, 697.975 359.718, 696.814 357.285 C 695.044 353.576, 691.177 353.118, 688.217 356.269 M 355 355.709 C 352.429 356.655, 350 359.235, 350 361.020 C 350 363.461, 353.827 368, 355.885 368 C 357.852 368, 363 363.044, 363 361.150 C 363 359.741, 358.507 354.959, 357.295 355.079 C 356.858 355.122, 355.825 355.406, 355 355.709 M 688.986 380.810 C 686.270 383.010, 686.058 387.301, 688.530 390.033 C 690.966 392.725, 693.462 392.500, 695.927 389.365 C 698.613 385.951, 698.540 384.449, 695.545 381.455 C 692.611 378.520, 691.900 378.450, 688.986 380.810 M 352.655 381.829 C 350.469 384.244, 350.552 388.284, 352.829 390.345 C 355.326 392.605, 357.254 392.423, 359.826 389.686 C 362.530 386.807, 362.581 384.581, 360 382 C 357.509 379.509, 354.811 379.446, 352.655 381.829 M 454 384.648 C 444.817 386.027, 438.167 387.605, 428.750 390.638 C 417.698 394.197, 414.558 396.576, 422.250 395.562 C 435.214 393.853, 463.207 391.813, 474.500 391.754 C 488.780 391.679, 497.253 393.206, 507.124 397.636 C 514.451 400.924, 516.274 400.365, 511.845 396.187 C 507.836 392.405, 497.777 387.440, 490.040 385.423 C 484.989 384.107, 461.034 383.591, 454 384.648 M 556.509 385.515 C 552.664 386.311, 546.809 388.296, 543.499 389.926 C 537.614 392.823, 531.075 398.408, 532.223 399.557 C 532.541 399.875, 535.008 399.016, 537.705 397.649 C 540.402 396.283, 545.284 394.419, 548.554 393.509 C 556.329 391.343, 581.423 390.443, 594.500 391.859 C 600 392.455, 608.953 393.429, 614.396 394.022 C 624.267 395.099, 628.187 394.775, 626.417 393.029 C 625.913 392.532, 619.200 390.464, 611.500 388.435 C 598.474 385.002, 596.317 384.722, 580.500 384.406 C 568.370 384.164, 561.497 384.481, 556.509 385.515 M 446.500 465 C 446.872 465.603, 445.538 466, 443.142 466 C 440.853 466, 438.988 466.530, 438.746 467.250 C 438.410 468.247, 438.015 468.244, 436.794 467.236 C 435.951 466.541, 434.191 466.170, 432.881 466.412 C 431.571 466.654, 428.925 466.913, 427 466.989 C 423.819 467.114, 423.710 467.211, 425.802 468.050 C 428.632 469.186, 470.628 469.101, 473.459 467.954 C 475.470 467.139, 475.471 467.126, 473.500 467.048 C 472.042 466.991, 471.855 466.744, 472.810 466.139 C 473.593 465.642, 470.415 465.045, 464.906 464.654 C 451.652 463.713, 445.773 463.824, 446.500 465 M 316 477.428 C 313.525 478.115, 310.150 479.379, 308.500 480.238 C 304.670 482.231, 294.674 492.802, 289.500 500.330 C 287.300 503.531, 281.527 511.614, 276.671 518.291 C 271.815 524.969, 265.410 534.048, 262.439 538.466 C 259.468 542.885, 254.481 550.100, 251.358 554.500 C 237.567 573.925, 231 584.442, 231 587.102 C 231 590.516, 235.084 595.492, 239.906 597.952 C 249.888 603.045, 247.564 602.931, 352.750 603.456 C 406.788 603.725, 451 603.561, 451 603.091 C 451 602.622, 449.425 601.036, 447.500 599.568 C 444.958 597.629, 444 596.126, 444 594.077 C 444 590.968, 451.970 578.103, 456.438 574 L 459.161 571.500 486.330 570.856 C 501.274 570.502, 530.343 570.390, 550.928 570.608 C 582.141 570.937, 588.738 571.254, 590.659 572.513 C 593.615 574.449, 605 591.335, 605 593.782 C 605 594.804, 603.433 597.471, 601.518 599.708 L 598.036 603.776 693.268 603.797 C 794.067 603.819, 798.941 603.622, 807.664 599.172 C 812.632 596.637, 818.001 590.684, 817.997 587.715 C 817.993 585.447, 810.576 574.545, 786.892 542 C 767.717 515.651, 763.523 509.824, 755.227 498 C 743.472 481.247, 740.825 478.993, 730.707 477.123 C 726.135 476.278, 722.856 476.404, 714.727 477.741 C 705.415 479.272, 688.080 479.426, 521 479.461 C 349.715 479.497, 337.001 479.384, 330 477.751 C 321.447 475.756, 321.979 475.768, 316 477.428 M 342 491.206 C 338.250 492.033, 336.217 493.526, 329.804 500.160 C 321.911 508.325, 316 516.274, 316 518.722 C 316 522.051, 322.299 523, 344.395 523 L 365.855 523 367.933 520.358 C 369.076 518.904, 373.193 512.413, 377.081 505.933 C 386.932 489.515, 387.300 489.968, 364.215 490.107 C 354.472 490.166, 344.475 490.661, 342 491.206 M 402.500 490.725 C 400.850 490.959, 398.023 492.569, 396.218 494.303 C 390.521 499.773, 380 516.132, 380 519.519 C 380 519.840, 381.561 520.754, 383.468 521.551 C 387.120 523.077, 412.297 523.608, 422.555 522.375 L 427.609 521.768 433.814 508.634 C 440.243 495.027, 441.108 491.639, 438.418 490.607 C 436.688 489.943, 407.334 490.040, 402.500 490.725 M 463.500 490.764 C 455.612 491.070, 454.302 491.384, 452.898 493.307 C 450.149 497.069, 440 516.593, 440 518.119 C 440 518.916, 441.307 520.341, 442.904 521.284 C 446.108 523.177, 457.210 523.539, 475.304 522.340 C 484.561 521.727, 485.181 521.546, 486.417 519.096 C 488.347 515.268, 493 498.345, 493 495.155 C 493 489.731, 492.411 489.643, 463.500 490.764 M 513 490.874 L 505.500 491.500 503.847 497 C 497.746 517.291, 497.532 519.769, 501.722 521.498 C 504.318 522.570, 542.708 522.061, 545.722 520.916 C 548.250 519.954, 548.274 519.844, 547.624 512.221 C 546.854 503.188, 544.683 493.283, 543.133 491.733 C 541.864 490.464, 524.005 489.955, 513 490.874 M 557.108 491.637 C 555.131 493.021, 554.845 493.909, 555.251 497.387 C 556.208 505.581, 560.294 518.384, 562.728 520.819 C 565.114 523.205, 565.190 523.212, 583.811 522.823 C 605.175 522.377, 607.597 521.734, 606.604 516.770 C 605.805 512.773, 597.299 493.995, 595.271 491.750 C 593.882 490.213, 591.606 490, 576.568 490 C 562.329 490, 559.051 490.276, 557.108 491.637 M 609.949 492.051 C 607.557 494.443, 607.541 494.375, 613.612 508.256 C 620.453 523.898, 618.746 523, 641.640 523 C 657.488 523, 661.549 522.706, 664.386 521.353 C 668.599 519.344, 668.560 519.203, 659.908 504.770 C 650.254 488.667, 652.878 490, 630.826 490 C 613.177 490, 611.872 490.128, 609.949 492.051 M 667.797 490.680 C 665.078 491.396, 664.659 494.733, 666.777 498.790 C 670.624 506.157, 679.938 519.843, 682.167 521.404 C 684.066 522.734, 687.694 522.997, 703.973 522.985 C 722.871 522.970, 731.904 521.844, 732.687 519.405 C 733.509 516.843, 713.136 493.373, 708.358 491.376 C 705.940 490.366, 700.337 490.031, 687.282 490.116 C 677.502 490.180, 668.734 490.434, 667.797 490.680 M 454.090 506.453 C 451.841 510.552, 450 514.110, 450 514.359 C 450 514.609, 450.869 514.586, 451.931 514.308 C 452.997 514.029, 453.638 513.221, 453.363 512.503 C 452.813 511.069, 457.602 500.934, 459.381 499.765 C 460.194 499.231, 460.183 499.026, 459.340 499.015 C 458.703 499.007, 456.340 502.354, 454.090 506.453 M 466.728 500.722 C 468.503 500.943, 471.653 500.946, 473.728 500.730 C 475.802 500.513, 474.350 500.333, 470.500 500.328 C 466.650 500.324, 464.952 500.501, 466.728 500.722 M 307.468 531.163 C 305.746 532.674, 301.562 537.813, 298.169 542.583 C 291.474 551.995, 290.603 555.425, 294.103 558.595 C 296.013 560.325, 298.236 560.529, 318.363 560.816 C 331.117 560.999, 341.604 560.721, 343.074 560.162 C 345.725 559.154, 359.962 537.647, 360.768 533.432 C 361.450 529.866, 357.169 529.145, 333.049 528.767 L 310.597 528.415 307.468 531.163 M 453.667 528.975 C 440.356 529.446, 438.677 529.705, 437.310 531.500 C 434.054 535.777, 428 549.560, 428 552.697 C 428 556.344, 430.603 559.614, 434.225 560.516 C 435.476 560.828, 477.290 560.952, 527.146 560.791 C 614.661 560.510, 617.864 560.434, 619.896 558.595 C 621.053 557.547, 622 555.735, 622 554.569 C 622 551.356, 611.332 530.345, 609.288 529.532 C 607.169 528.689, 475.108 528.217, 453.667 528.975 M 647.500 529.016 C 636.500 529.378, 626.712 530.021, 625.750 530.444 C 624.788 530.868, 624 532.020, 624 533.005 C 624 536.161, 633.018 552.935, 636.920 557.036 L 640.690 561 662.190 561 C 681.749 561, 683.839 560.835, 685.345 559.171 C 688.105 556.121, 687.258 552.560, 681.334 542.306 C 674.593 530.639, 672.347 527.940, 669.576 528.178 C 668.434 528.277, 658.500 528.653, 647.500 529.016 M 708.500 528.946 C 698.600 529.251, 689.938 529.864, 689.250 530.309 C 688.563 530.754, 688 532.129, 688 533.364 C 688 535.944, 696.980 551.407, 701.634 556.841 L 704.768 560.500 728.480 560.802 C 748.725 561.060, 752.544 560.874, 754.596 559.529 C 757.958 557.326, 757.676 553.424, 753.750 547.841 C 751.962 545.298, 748.971 541.031, 747.103 538.359 C 740.318 528.654, 739.348 527.977, 732.563 528.196 C 729.228 528.304, 718.400 528.642, 708.500 528.946 M 375.770 530.250 C 373.970 531.645, 366.036 543.096, 363.584 547.837 C 361.172 552.502, 361.551 556.501, 364.635 558.927 C 367.110 560.874, 368.540 561, 388.201 561 C 401.472 561, 409.881 560.599, 411.181 559.903 C 413.648 558.583, 425.408 534.506, 424.606 532.417 C 423.535 529.625, 418.692 529, 398.126 529 C 383.058 529, 376.941 529.342, 375.770 530.250 M 228.377 549.459 C 227.059 552.895, 231.866 561, 235.223 561 C 236.372 561, 236.167 552.180, 234.965 549.934 C 233.743 547.652, 229.197 547.323, 228.377 549.459 M 815.456 552.451 C 813.591 556.915, 813.853 560.976, 815.959 560.233 C 818.653 559.283, 820.076 557.753, 821.551 554.223 C 823.247 550.164, 822.766 549, 819.390 549 C 817.494 549, 816.553 549.825, 815.456 552.451 M 457.095 586.872 C 454.293 590.652, 452 594.059, 452 594.443 C 452 594.827, 454.587 595.073, 457.750 594.989 C 460.913 594.905, 471.379 594.873, 481.009 594.918 C 497.758 594.996, 498.577 595.093, 499.852 597.134 C 501.600 599.933, 500.328 600.709, 493.747 600.857 C 488.613 600.973, 487.134 601.467, 488.334 602.667 C 489.535 603.869, 564.316 603.609, 566.365 602.396 C 567.986 601.436, 567.693 601.207, 564.115 600.634 C 561.500 600.216, 560 599.450, 560 598.534 C 560 596.725, 564.740 591.896, 566.323 592.091 C 569.615 592.499, 570.792 591.920, 570.323 590.126 C 569.941 588.667, 570.481 588.156, 572.756 587.822 C 576.468 587.278, 578 587.792, 578 589.583 C 578 592.273, 579.866 590.993, 579.944 588.250 C 580.105 582.537, 580.224 582.335, 583.319 582.519 C 586.056 582.682, 586.152 582.584, 584.462 581.348 C 582.963 580.253, 571.338 580, 522.404 580 L 462.189 580 457.095 586.872 M 586.831 581.629 C 587.397 582.658, 589.276 585.075, 591.006 587 L 594.152 590.500 590.847 585.668 C 587.498 580.770, 584.943 578.201, 586.831 581.629 M 584.482 587.817 C 584.527 589.500, 583.799 590.953, 582.527 591.715 C 580.833 592.730, 580.778 592.935, 582.191 592.965 C 583.121 592.984, 584.165 592.543, 584.510 591.984 C 584.856 591.425, 585.602 591.254, 586.169 591.604 C 586.863 592.034, 586.885 591.631, 586.235 590.371 C 585.704 589.342, 585.458 587.979, 585.688 587.342 C 585.918 586.705, 585.724 585.947, 585.257 585.659 C 584.791 585.371, 584.442 586.342, 584.482 587.817 M 518.250 588.706 C 516.438 589.055, 516 589.807, 516 592.570 C 516 594.748, 515.552 595.909, 514.774 595.750 C 514.099 595.612, 513.392 596.522, 513.202 597.770 C 512.861 600.005, 512.988 600.034, 521.332 599.638 C 525.994 599.417, 530.302 598.932, 530.904 598.559 C 532.379 597.648, 532.302 590.702, 530.800 589.200 C 529.652 588.052, 523.004 587.790, 518.250 588.706 M 229.006 600.631 C 229.051 607.775, 236.561 614.502, 246.998 616.747 C 252.456 617.921, 293.034 618.174, 499.750 618.323 C 635.187 618.420, 746 618.193, 746 617.817 C 746 616.574, 750.183 615.783, 751.228 616.828 C 751.860 617.460, 753.125 617.523, 754.524 616.991 C 755.773 616.516, 757.021 616.354, 757.298 616.631 C 758.952 618.285, 786.927 618.448, 794 616.844 C 801.260 615.199, 808.625 612.028, 810.959 609.544 L 813.129 607.234 803.814 609.701 L 794.500 612.168 525.886 612.025 C 303.066 611.906, 256.159 611.649, 250.742 610.515 C 243.786 609.060, 237.537 606.262, 232.250 602.237 C 230.463 600.876, 229.003 600.154, 229.006 600.631 M 307.948 659.826 C 299.470 662.039, 288.689 668.487, 282.624 674.971 C 276.818 681.178, 270.779 693.712, 268.877 703.500 C 266.900 713.676, 267.225 739.666, 269.433 748 C 274.778 768.173, 288.469 782.762, 306.455 787.446 C 314.484 789.538, 391.805 790.467, 448 789.147 C 483.764 788.307, 492.311 787.818, 501.929 786.062 C 508.215 784.914, 513.513 783.820, 513.703 783.630 C 513.893 783.440, 510.325 783.006, 505.774 782.665 C 501.223 782.324, 494.008 781.606, 489.741 781.070 C 485.025 780.477, 452.856 780.270, 407.719 780.540 C 325.548 781.033, 312.895 780.553, 302.962 776.570 C 291.048 771.792, 284.542 764.447, 279.332 749.894 C 276.892 743.077, 276.688 741.290, 276.725 727 C 276.807 694.945, 282.896 680.790, 300.042 672.798 C 312.006 667.221, 299.765 667.511, 524 667.505 L 731.500 667.500 737.317 669.847 C 745.713 673.234, 755.046 682.283, 759.517 691.368 C 764.245 700.979, 765.962 709.936, 765.983 725.114 C 766.004 740.703, 764.960 746.553, 760.559 755.500 C 754.971 766.859, 746.940 774.259, 736 778.128 L 729.500 780.426 651.500 780.556 C 608.600 780.628, 568.100 781.043, 561.500 781.479 C 554.900 781.914, 549.489 782.098, 549.475 781.886 C 549.462 781.673, 548.739 782.165, 547.870 782.977 C 546.456 784.298, 546.987 784.652, 552.894 786.324 C 558.532 787.921, 565.066 788.314, 597.500 789.007 C 654.824 790.233, 725.619 790.185, 732.566 788.916 C 746.918 786.295, 760.615 775.986, 767.186 762.862 C 773.572 750.105, 774.431 745.702, 774.373 726 C 774.315 706.286, 773.048 699.001, 767.908 688.818 C 762.170 677.450, 758.562 673.306, 746.500 664.227 C 744.144 662.453, 737.068 659.993, 731.566 659.034 C 727.603 658.343, 657.385 658.019, 520.066 658.058 C 329.427 658.111, 314.024 658.240, 307.948 659.826 M 314.432 681.513 C 314.069 683.445, 314.063 687.382, 314.418 690.263 C 314.773 693.143, 315.087 709.078, 315.115 725.672 C 315.154 748.993, 315.465 756.254, 316.483 757.647 C 317.697 759.307, 319.993 759.451, 345.651 759.474 L 373.500 759.500 373.789 750.771 L 374.077 742.042 353.789 741.771 L 333.500 741.500 333.880 710.401 L 334.260 679.301 331.880 678.664 C 330.571 678.314, 326.258 678.021, 322.295 678.014 L 315.091 678 314.432 681.513 M 724.048 681.798 C 718.134 687.712, 721.024 697.355, 729.095 698.639 C 732.149 699.125, 733.239 698.729, 736.345 696.002 C 739.587 693.156, 740 692.256, 740 688.051 C 740 682.183, 737.879 679.966, 731.588 679.257 C 727.580 678.805, 726.767 679.079, 724.048 681.798 M 727.238 686.162 C 725.295 688.105, 725.785 691.736, 728.222 693.443 C 730.269 694.877, 730.601 694.844, 732.423 693.021 C 734.035 691.409, 734.222 690.530, 733.431 688.272 C 732.371 685.246, 729.226 684.174, 727.238 686.162 M 406.195 694.025 C 396.090 696.112, 386.132 704.138, 381.682 713.783 C 378.391 720.916, 378.628 733.495, 382.199 741.196 C 385.415 748.132, 391.796 754.711, 398.500 758.002 C 402.783 760.105, 404.934 760.460, 413.500 760.479 C 422.393 760.498, 424.109 760.199, 429 757.779 C 434.008 755.302, 443.841 748.211, 443.948 747 C 443.973 746.725, 441.049 744.978, 437.452 743.118 L 430.911 739.735 428.677 741.834 C 423.751 746.462, 413.009 748.315, 406.718 745.623 C 402.980 744.024, 398.316 739.318, 397.834 736.659 C 397.519 734.920, 398.844 734.798, 421.745 734.471 C 435.079 734.281, 446.497 733.811, 447.119 733.427 C 447.885 732.953, 448.038 730.603, 447.593 726.114 C 445.536 705.379, 425.694 689.998, 406.195 694.025 M 478.500 693.436 C 477.950 693.652, 473.563 695.071, 468.750 696.590 C 463.938 698.110, 460 699.714, 460 700.157 C 460 701.646, 467.051 712, 468.066 712 C 468.618 712, 470.130 711.306, 471.425 710.457 C 474.431 708.487, 483.221 707.086, 488.298 707.767 C 493.149 708.417, 500 714.465, 500 718.095 L 499.999 720.500 486.250 720.500 C 472.935 720.500, 472.334 720.592, 467.246 723.411 C 457.491 728.816, 453.875 736.391, 456.565 745.789 C 461.069 761.527, 481.506 767.130, 495.485 756.459 C 497.978 754.557, 500.167 753, 500.350 753 C 500.534 753, 501.223 754.800, 501.882 757 L 503.080 761 509.418 761 C 513.629 761, 516.145 760.530, 516.917 759.600 C 518.506 757.685, 516.634 715.869, 514.709 710.281 C 512.660 704.333, 508.614 699.653, 502.754 696.454 C 498.246 693.992, 496.223 693.546, 488.500 693.314 C 483.550 693.166, 479.050 693.221, 478.500 693.436 M 564.500 694.504 C 562.300 695.282, 558.617 697.905, 556.316 700.331 L 552.132 704.743 551.508 701.047 C 551.164 699.014, 551.022 696.709, 551.192 695.925 C 551.438 694.788, 549.636 694.442, 542.280 694.213 L 533.060 693.926 533.087 726.939 C 533.102 745.096, 533.426 760.085, 533.807 760.247 C 534.188 760.410, 538.378 760.389, 543.117 760.201 L 551.734 759.861 552.203 742.180 C 552.597 727.340, 552.994 723.777, 554.674 720 C 557.399 713.873, 559.289 712.583, 566.401 712 C 572.499 711.500, 572.500 711.499, 574.791 706.885 C 577.821 700.781, 578.746 695.086, 576.897 693.915 C 574.842 692.614, 569.065 692.888, 564.500 694.504 M 587.236 726.106 L 587.500 759.453 596 759.130 C 600.993 758.941, 604.803 758.332, 605.235 757.654 C 605.639 757.019, 605.976 747.852, 605.985 737.283 L 606 718.067 609.519 714.548 C 613.895 710.171, 617.210 709.279, 622.345 711.095 C 629.611 713.664, 630.329 715.668, 631.193 735.778 C 631.611 745.525, 632.221 755.024, 632.548 756.887 L 633.142 760.274 639.987 759.638 C 643.752 759.288, 647.477 758.754, 648.265 758.452 C 649.411 758.012, 649.837 753.797, 650.397 737.355 C 650.994 719.817, 650.860 716.095, 649.482 711.947 C 647.466 705.877, 640.086 697.838, 634 695.082 C 625.502 691.233, 614.979 693.246, 607.775 700.099 L 603.727 703.950 604.317 698.975 L 604.906 694 598.203 693.986 C 594.516 693.979, 590.481 693.700, 589.236 693.366 L 586.973 692.760 587.236 726.106 M 684.052 695.120 C 679.787 696.406, 672.935 701.244, 670.266 704.854 C 664.694 712.390, 663.506 716.107, 663.503 726 C 663.500 734.687, 663.757 735.964, 666.500 740.919 C 670.624 748.368, 677.207 755.438, 682.327 757.916 C 688.634 760.969, 697.380 761.613, 704.485 759.547 C 709.144 758.193, 711.620 756.611, 716.673 751.758 C 725.244 743.528, 728.509 736.816, 728.473 727.500 C 728.439 718.690, 725.964 712.957, 719.028 705.623 C 712.249 698.456, 704.031 694.672, 694.500 694.331 C 690.650 694.194, 685.949 694.549, 684.052 695.120 M 407.001 709.123 C 402.564 710.893, 397 717.473, 397 720.950 C 397 721.639, 402.495 722, 413 722 C 430.697 722, 430.793 721.957, 426.726 715.922 C 422.028 708.950, 414.200 706.253, 407.001 709.123 M 689.001 710.072 C 682.894 712.632, 679 718.595, 679 725.385 C 679 731.412, 680.011 733.714, 685.144 739.382 C 688.860 743.484, 690.174 744.267, 694.084 744.707 C 699.895 745.361, 704.120 743.287, 707.556 738.095 C 710.957 732.955, 711.173 723.860, 708.027 718.263 C 704.109 711.290, 695.221 707.464, 689.001 710.072 M 479.643 733.010 C 472.934 735.063, 471.209 739.806, 475.399 744.678 C 477.516 747.139, 478.486 747.467, 483.654 747.467 C 488.040 747.467, 490.455 746.882, 493.279 745.137 C 497.457 742.554, 500.287 738.026, 499.811 734.682 C 499.522 732.652, 498.909 732.487, 491 732.318 C 486.325 732.217, 481.214 732.529, 479.643 733.010" stroke="none" fill="#241b4b" fill-rule="evenodd"/><path d="M 667.250 163.230 C 665.496 164.069, 665 165.149, 665 168.132 C 665 171.632, 665.364 172.143, 669.250 174.103 C 674.584 176.792, 674.727 176.933, 673.128 177.921 C 672.405 178.368, 680.293 178.968, 690.657 179.255 C 705.987 179.680, 710.525 180.147, 715 181.757 C 722.823 184.573, 730.734 189.428, 736.309 194.836 C 742.132 200.484, 744.398 204.012, 748.199 213.353 C 750.715 219.536, 751.037 219.960, 750.581 216.500 C 748.628 201.653, 728.049 182.214, 710.734 178.861 C 707.855 178.303, 700.100 177.632, 693.500 177.368 C 686.900 177.105, 680.825 176.619, 680 176.287 C 679.175 175.956, 677.952 175.772, 677.282 175.879 C 675.756 176.122, 667.755 172.118, 666.765 170.616 C 665.620 168.877, 665.864 167.278, 667.529 165.614 C 670.082 163.061, 675.191 166.048, 677.597 171.500 C 678.900 174.450, 678.922 174.458, 678.961 171.962 C 679.006 169.055, 674.467 163.392, 671.500 162.653 C 670.400 162.379, 668.487 162.639, 667.250 163.230 M 372.500 163.690 C 369.417 164.461, 364.030 170.105, 363.160 173.475 L 362.380 176.500 351.940 177.100 C 336.821 177.968, 329.978 179.390, 321.659 183.391 C 314.083 187.035, 304.562 195.272, 301.664 200.688 C 297.165 209.098, 294 216.399, 294 218.370 C 294 219.596, 293.521 221.079, 292.934 221.666 C 291.523 223.077, 291.616 437.016, 293.030 438.430 C 293.563 438.963, 294 440.858, 294 442.641 C 294 444.424, 294.415 446.139, 294.923 446.452 C 295.431 446.766, 296.145 448.385, 296.511 450.049 C 296.876 451.714, 299.652 455.750, 302.679 459.020 L 308.182 464.964 299.760 473.232 C 295.128 477.779, 290.029 483.525, 288.428 486 C 286.828 488.475, 285.287 490.725, 285.004 491 C 284.720 491.275, 283.155 493.300, 281.524 495.500 C 279.894 497.700, 278.200 499.950, 277.760 500.500 C 277.319 501.050, 274.629 504.875, 271.781 509 C 268.933 513.125, 266.228 516.950, 265.770 517.500 C 265.312 518.050, 262.814 521.468, 260.218 525.095 C 257.623 528.722, 254.042 533.672, 252.259 536.095 C 250.477 538.518, 246.877 543.522, 244.259 547.216 C 241.642 550.910, 239.031 553.947, 238.457 553.966 C 237.883 553.985, 236.983 552.538, 236.457 550.750 C 235.584 547.784, 235.150 547.500, 231.500 547.500 L 227.500 547.500 227.588 551.776 C 227.654 554.969, 228.351 556.757, 230.338 558.831 C 231.802 560.359, 233 562.077, 233 562.648 C 233 563.219, 230.821 566.794, 228.158 570.593 C 220.239 581.890, 217.532 589.600, 218.337 598.563 C 219.767 614.484, 221.456 618.921, 229.257 627.246 C 234.027 632.335, 234.056 632.350, 230.185 627.716 C 222.533 618.557, 219.317 607.700, 220.257 594.202 C 220.900 584.979, 221.748 582.867, 228.950 572.547 C 232.002 568.173, 235.400 563.123, 236.500 561.324 C 237.600 559.525, 243.427 551.179, 249.449 542.777 C 255.470 534.375, 264.695 521.486, 269.949 514.136 C 289.780 486.388, 297.153 476.994, 303.500 471.387 L 310.040 465.609 305.621 461.055 C 300.525 455.803, 296.834 448.855, 294.966 441 C 293.093 433.121, 293.094 228.032, 294.968 219.951 C 296.172 214.754, 300.566 204.886, 303.613 200.534 C 309.784 191.721, 320.811 184.250, 331.613 181.566 C 340.547 179.345, 357.366 179.108, 517.500 178.945 C 604.072 178.858, 664.047 178.433, 662 177.923 C 660.075 177.443, 594.038 177.060, 515.250 177.072 C 436.463 177.083, 371.966 176.836, 371.925 176.521 C 371.771 175.346, 372.600 174.425, 376.307 171.655 C 379.304 169.416, 380.049 168.245, 379.807 166.155 C 379.488 163.398, 377.012 162.562, 372.500 163.690 M 369.757 167.519 C 365.904 170.137, 364 172.755, 364 175.434 C 364 178.052, 367.449 177.199, 372.606 173.306 C 378.300 169.009, 378.997 168.156, 378.300 166.341 C 377.498 164.250, 373.822 164.757, 369.757 167.519 M 389.500 189 C 338.023 189.468, 334.212 189.624, 330 191.430 C 322.829 194.505, 318.703 197.424, 313.768 202.913 C 308.318 208.975, 305.396 214.641, 304.044 221.766 C 303.445 224.925, 302.982 267.820, 302.862 331.231 C 302.667 434.657, 302.682 435.546, 304.749 441.229 C 306.951 447.281, 310.507 453, 312.068 453 C 312.581 453, 313.014 451.762, 313.030 450.250 C 313.055 447.986, 313.233 447.795, 314.034 449.167 C 315.580 451.817, 324.383 457.871, 329.120 459.542 C 332.856 460.861, 341.106 462.410, 350 463.465 C 351.375 463.628, 353.357 464.115, 354.404 464.547 C 355.451 464.979, 358.376 464.918, 360.904 464.413 C 363.432 463.908, 367.750 463.761, 370.500 464.088 C 373.250 464.414, 376.850 464.291, 378.500 463.814 C 381.461 462.958, 510.951 462.618, 511.797 463.464 C 512.037 463.704, 509.958 464.202, 507.177 464.571 C 504.325 464.949, 501.891 465.843, 501.592 466.621 C 500.926 468.356, 499.443 468.237, 526 468.577 C 538.375 468.735, 549.175 468.966, 550 469.090 C 550.825 469.214, 557.125 469.204, 564 469.068 C 576.393 468.823, 576.458 468.810, 571.621 467.481 C 556.835 463.421, 567.477 462.614, 632.823 462.839 C 690.146 463.037, 703.620 462.389, 713.727 458.951 C 722.040 456.122, 725.839 453.399, 729.005 448 C 735.644 436.680, 735.253 442.962, 735.631 341.500 C 736.006 241.098, 735.569 227.684, 731.544 216.020 C 728.788 208.034, 728.824 205.611, 731.681 206.708 C 733.272 207.318, 733.252 207.094, 731.469 204.344 C 727.564 198.319, 721.264 193.933, 711.500 190.442 C 706.799 188.761, 698.665 188.650, 575.500 188.577 C 503.450 188.535, 419.750 188.725, 389.500 189 M 430 202.029 C 354.365 202.498, 343.947 202.747, 339.705 204.195 C 329.282 207.752, 319.489 217.853, 316.626 228 C 315.293 232.725, 314.995 246.820, 314.510 328 C 313.879 433.522, 313.637 429.204, 320.777 439.868 C 322.825 442.927, 326.865 447.345, 329.755 449.688 C 339.588 457.658, 324.052 457.094, 525.109 456.780 L 704.500 456.500 710.500 453.341 C 718.408 449.178, 722.290 445.187, 726.242 437.161 L 729.500 430.542 729.500 329.521 L 729.500 228.500 726.914 223 C 723.299 215.313, 715.378 206.964, 709.372 204.509 C 704.752 202.621, 701.789 202.505, 652 202.258 C 623.125 202.115, 580.600 201.886, 557.500 201.749 C 534.400 201.612, 477.025 201.738, 430 202.029 M 350 211.057 C 341.660 211.800, 339.026 212.960, 333.102 218.501 C 323.873 227.134, 324.500 219.004, 324.500 330 L 324.500 427.500 326.894 432 C 330.669 439.094, 334.013 442.958, 338.419 445.316 L 342.500 447.500 504.316 447.762 C 673.375 448.036, 701.914 447.589, 708 444.572 C 712.344 442.420, 717.533 435.735, 720.095 428.992 C 721.978 424.036, 722.030 420.876, 721.769 327.688 L 721.500 231.500 718.570 226.212 C 714.849 219.494, 708.283 213.416, 703.341 212.114 C 699.195 211.022, 361.730 210.012, 350 211.057 M 751.407 253.348 C 751.355 271.031, 751.648 284.375, 752.057 283 C 753.038 279.702, 753.219 222.253, 752.250 221.657 C 751.837 221.403, 751.458 235.664, 751.407 253.348 M 350.256 234.645 C 346.624 236.435, 343.566 240.844, 342.517 245.803 C 341.559 250.331, 345.709 258.806, 350.177 261.445 C 360.094 267.304, 373.006 259.754, 372.996 248.102 C 372.987 236.538, 360.912 229.392, 350.256 234.645 M 684.750 235.067 C 681.667 236.886, 682.645 239, 686.570 239 C 689.695 239, 690.099 238.721, 689.820 236.760 C 689.459 234.234, 687.354 233.530, 684.750 235.067 M 696.362 235.500 C 694.919 239.259, 699.325 241.724, 701.912 238.606 C 702.805 237.530, 702.703 236.846, 701.463 235.606 C 699.446 233.589, 697.113 233.541, 696.362 235.500 M 568 237.632 C 551.015 239.151, 541.226 241.965, 531.392 248.155 C 528.033 250.270, 524.765 252, 524.131 252 C 523.496 252, 520.387 250.232, 517.222 248.071 C 514.056 245.910, 507.873 242.912, 503.483 241.408 C 496.554 239.035, 493.520 238.616, 480.500 238.231 C 462.788 237.708, 452.973 239.113, 436.494 244.529 C 425.140 248.261, 425.802 248.203, 411 246.746 C 408.607 246.511, 408.487 246.761, 408.206 252.615 L 407.912 258.729 402.265 259.312 C 395.916 259.967, 392.462 262.076, 389.500 267.105 C 387.561 270.396, 387.491 272.581, 387.203 338.500 C 387.040 375.900, 387.167 407.930, 387.485 409.678 C 387.803 411.426, 389.355 414.239, 390.933 415.928 L 393.802 419 419.151 418.946 C 433.093 418.917, 456.377 418.525, 470.894 418.076 L 497.289 417.259 500.137 420.503 C 506.214 427.424, 520.736 430.672, 531.549 427.529 C 538.501 425.508, 543.649 422.978, 546.723 420.073 C 548.941 417.977, 549.079 417.973, 598.723 418.626 C 654.161 419.355, 653.961 419.375, 657.985 412.810 C 659.981 409.555, 660.011 408.320, 659.757 338.330 L 659.500 267.160 657 264.451 C 653.692 260.866, 649.081 259, 643.532 259 L 639 259 639 253.123 L 639 247.247 627.250 246.731 C 617.610 246.308, 612.986 245.505, 601.500 242.258 C 588.068 238.460, 576.537 236.868, 568 237.632 M 355.540 246.579 C 352.052 251.903, 356.394 256.357, 361.461 252.652 C 363.136 251.427, 363.252 250.849, 362.260 248.671 C 361.621 247.270, 360.223 245.654, 359.152 245.081 C 357.548 244.223, 356.911 244.487, 355.540 246.579 M 457.500 248.495 C 453.100 249.285, 443.899 251.522, 437.052 253.466 C 430.206 255.410, 423.681 257.006, 422.552 257.014 C 421.424 257.021, 419.600 257.270, 418.500 257.566 C 416.530 258.096, 416.496 259.053, 416.258 321.552 L 416.016 385 418.113 385 C 419.267 385, 423.876 383.900, 428.355 382.555 C 447.313 376.863, 471.522 373.968, 484.082 375.891 C 498.057 378.030, 511.791 383.586, 516.272 388.912 L 518.796 391.912 519.454 377.706 C 519.816 369.893, 519.929 340.640, 519.707 312.699 L 519.303 261.898 515.901 259.010 C 511.097 254.929, 503.672 251.004, 497.650 249.361 C 489.932 247.255, 467.144 246.764, 457.500 248.495 M 555.500 248.475 C 546.651 250.111, 539.807 252.739, 533.303 256.997 L 528.192 260.342 527.812 325.421 C 527.603 361.215, 527.567 390.694, 527.731 390.932 C 527.896 391.169, 529.486 389.979, 531.265 388.287 C 538.898 381.028, 553.791 376.172, 571.083 375.303 C 584.717 374.618, 593.975 375.784, 613 380.582 C 629.411 384.721, 631.851 384.876, 631.393 381.750 C 631.211 380.512, 630.895 352.068, 630.689 318.541 L 630.315 257.582 621.907 256.348 C 617.283 255.669, 609.900 253.954, 605.500 252.535 C 588.819 247.158, 570.615 245.680, 555.500 248.475 M 639 270.945 C 639 272.350, 639.648 273, 641.050 273 C 642.177 273, 644.458 273.702, 646.118 274.561 L 649.136 276.122 648.818 272.811 C 648.512 269.623, 648.324 269.489, 643.750 269.195 C 639.526 268.924, 639 269.118, 639 270.945 M 398.265 335.250 L 398.500 400.500 401.905 400.295 C 403.777 400.183, 405.708 399.692, 406.196 399.204 C 406.684 398.716, 407.022 392.733, 406.948 385.909 C 406.874 379.084, 406.898 350.212, 407.002 321.750 L 407.191 270 402.610 270 L 398.029 270 398.265 335.250 M 473 271.017 C 467.225 271.423, 462.358 271.810, 462.184 271.877 C 462.010 271.945, 462.010 273.192, 462.184 274.650 L 462.500 277.299 484.346 277.400 C 496.361 277.455, 506.395 277.169, 506.645 276.765 C 507.366 275.599, 501.018 272.170, 497.084 271.602 C 489.207 270.463, 483.027 270.313, 473 271.017 M 554.210 272.502 C 546.458 273.907, 542 276.105, 542 278.523 C 542 280.438, 542.375 280.425, 563.133 277.803 C 580.557 275.601, 580.900 275.596, 592.133 277.364 C 598.385 278.347, 606.329 279.852, 609.786 280.707 C 616.425 282.349, 617.403 282.213, 616.469 279.779 C 615.587 277.480, 612.157 276.285, 598.543 273.528 C 584.282 270.641, 566.723 270.234, 554.210 272.502 M 436.594 276.041 C 434.995 276.519, 432.183 278.369, 430.344 280.151 C 427.159 283.238, 427 283.737, 427 290.619 C 427 296.957, 427.322 298.230, 429.619 300.959 C 435.426 307.860, 442.723 308.938, 448.614 303.766 C 453.252 299.694, 455 295.544, 455 288.609 C 455 282.013, 451.927 277.630, 446.186 276.035 C 441.919 274.850, 440.573 274.851, 436.594 276.041 M 577 288 C 575.900 289.100, 575 290.434, 575 290.965 C 575 293.587, 584.431 295.169, 586.676 292.924 C 587.443 292.157, 589.166 292.269, 592.691 293.316 C 600.665 295.684, 615.841 297.559, 617.072 296.328 C 620.093 293.307, 606.531 289, 594 289 C 589.215 289, 586.882 288.562, 586 287.500 C 584.233 285.371, 579.358 285.642, 577 288 M 467.250 288.723 C 464.633 289.048, 464 289.579, 464 291.447 C 464 294.493, 466.693 294.990, 479.500 294.303 C 486.314 293.937, 492.346 294.264, 498.434 295.329 C 503.348 296.188, 507.735 296.664, 508.184 296.386 C 509.653 295.478, 509.040 293.092, 507.066 292.035 C 501.131 288.859, 480.192 287.117, 467.250 288.723 M 549.076 290.552 C 541.924 292.103, 539.921 293.772, 541.765 296.644 C 542.310 297.492, 545.487 297.334, 554.021 296.035 C 568.458 293.836, 570 293.344, 570 290.933 C 570 289.193, 569.276 289.008, 562.750 289.079 C 558.763 289.123, 552.609 289.786, 549.076 290.552 M 640.204 305.588 C 640.041 308.111, 640.266 309.952, 640.704 309.680 C 641.142 309.407, 641.460 312.180, 641.411 315.842 C 641.339 321.148, 641.400 321.434, 641.710 317.250 C 641.988 313.509, 642.517 312, 643.550 312 C 644.347 312, 645 311.523, 645 310.941 C 645 310.359, 644.573 310.146, 644.051 310.469 C 643.059 311.082, 641.621 305.413, 642.179 303.089 C 642.355 302.352, 642.050 301.582, 641.500 301.376 C 640.948 301.170, 640.367 303.059, 640.204 305.588 M 471.500 305.942 C 463.864 306.475, 463.487 306.615, 463.206 309.022 L 462.911 311.544 476.706 311.213 C 487.292 310.959, 491.779 311.260, 496 312.508 C 504.270 314.954, 506.697 315.299, 507.418 314.133 C 508.536 312.323, 504.322 309.146, 498.789 307.627 C 492.270 305.837, 482.055 305.206, 471.500 305.942 M 559 305.686 C 552.198 306.811, 542 310.405, 542 311.677 C 542 313.992, 544.425 314.200, 552.345 312.564 C 560.739 310.830, 599.221 310.387, 606.500 311.941 C 608.700 312.410, 611.962 313.122, 613.750 313.522 C 616.612 314.163, 617 314.001, 617 312.160 C 617 309.531, 615.280 308.640, 606.303 306.620 C 600.901 305.404, 594.414 305.034, 580.303 305.136 C 569.961 305.211, 560.375 305.458, 559 305.686 M 751.309 377.982 C 751.190 416.568, 751.474 439.825, 752.059 439.464 C 753.120 438.808, 753.208 321.934, 752.150 318.210 C 751.793 316.950, 751.414 343.848, 751.309 377.982 M 432 328.644 C 428.198 330.208, 427.146 332.267, 426.538 339.335 C 425.733 348.698, 426.735 351.863, 431.587 355.275 C 437.239 359.251, 441.664 359.729, 445.946 356.828 C 451.546 353.033, 453.221 349.096, 453.780 338.411 L 454.273 329 451.287 329 C 449.645 329, 444.971 328.781, 440.901 328.513 C 436.830 328.246, 432.825 328.304, 432 328.644 M 467 329.361 C 467 330.786, 468.468 330.992, 478.250 330.937 C 491.679 330.861, 490.068 329.136, 475.750 328.259 C 468.092 327.789, 467 327.927, 467 329.361 M 571.299 329.106 C 569.539 329.615, 567.782 330.544, 567.395 331.170 C 567.008 331.797, 567.129 332.038, 567.664 331.707 C 568.200 331.377, 575.357 330.868, 583.569 330.577 C 601.433 329.945, 601.281 329.962, 597.500 329 C 593.270 327.924, 575.134 327.997, 571.299 329.106 M 353 332 C 350.602 334.398, 350.433 337.746, 352.557 340.777 C 354.556 343.632, 357.087 343.600, 359.826 340.686 C 362.660 337.669, 362.638 333.560, 359.777 331.557 C 356.840 329.499, 355.407 329.593, 353 332 M 688.039 332.189 C 685.596 334.811, 685.470 336.798, 687.557 339.777 C 690.267 343.647, 695.432 342.075, 697.292 336.814 C 698.062 334.638, 694.437 330, 691.966 330 C 690.928 330, 689.160 330.985, 688.039 332.189 M 546.603 337.477 C 541.415 339.326, 539.620 341.228, 540.488 343.961 C 540.981 345.515, 541.659 345.942, 542.840 345.442 C 550.158 342.341, 556.967 341.787, 581 342.335 C 594.475 342.642, 608.335 343.419, 611.801 344.062 C 618.705 345.344, 619.491 345.122, 618.550 342.159 C 617.450 338.691, 606.787 337.500, 576.845 337.500 C 562.185 337.500, 550.399 337.163, 550.654 336.750 C 551.233 335.815, 551.301 335.802, 546.603 337.477 M 468.250 337.639 C 467.003 337.916, 466 338.892, 466 339.827 C 466 341.297, 467.410 341.538, 476.904 341.696 C 488.859 341.895, 498.903 343.381, 503.158 345.582 C 506.895 347.514, 507.180 347.410, 506.816 344.250 C 506.331 340.031, 498.792 337.884, 483 337.468 C 476.125 337.286, 469.488 337.363, 468.250 337.639 M 640.988 350 C 640.895 355.225, 640.635 366.813, 640.411 375.750 C 640.073 389.232, 640.242 392, 641.408 392 C 642.292 392, 642.630 391.301, 642.319 390.113 C 642.048 389.075, 642.315 387.923, 642.913 387.554 C 643.594 387.133, 644 387.900, 644 389.608 C 644 393.227, 644.580 392.388, 645.299 387.728 C 645.673 385.308, 645.519 384.179, 644.872 384.579 C 644.224 384.979, 643.923 382.747, 644.031 378.352 C 644.197 371.551, 642.304 343.417, 641.551 341.500 C 641.335 340.950, 641.081 344.775, 640.988 350 M 467.250 351.639 C 465.703 351.983, 465 352.868, 465 354.471 C 465 356.780, 465.137 356.807, 478.250 357.152 C 490.878 357.484, 491.821 357.656, 498.338 360.823 C 505.196 364.156, 508 364.368, 508 361.554 C 508 357.431, 492.976 352.195, 479.390 351.583 C 473.951 351.338, 468.488 351.363, 467.250 351.639 M 565.500 351.584 C 550.568 353.713, 541 357.397, 541 361.017 C 541 363.588, 541.856 363.525, 550.379 360.331 C 556.986 357.854, 558.904 357.629, 576.969 357.221 C 596.425 356.780, 604.138 357.544, 610 360.490 C 615.184 363.096, 617 363.281, 617 361.204 C 617 359.055, 608.914 354.932, 601 353.045 C 596.250 351.912, 570.602 350.857, 565.500 351.584 M 688.217 356.269 C 685.449 359.215, 685.427 361.002, 688.115 364.420 C 690.843 367.887, 693.833 367.471, 696.271 363.285 C 697.906 360.477, 697.975 359.718, 696.814 357.285 C 695.044 353.576, 691.177 353.118, 688.217 356.269 M 355 355.709 C 352.429 356.655, 350 359.235, 350 361.020 C 350 363.461, 353.827 368, 355.885 368 C 357.852 368, 363 363.044, 363 361.150 C 363 359.741, 358.507 354.959, 357.295 355.079 C 356.858 355.122, 355.825 355.406, 355 355.709 M 688.986 380.810 C 686.270 383.010, 686.058 387.301, 688.530 390.033 C 690.966 392.725, 693.462 392.500, 695.927 389.365 C 698.613 385.951, 698.540 384.449, 695.545 381.455 C 692.611 378.520, 691.900 378.450, 688.986 380.810 M 352.655 381.829 C 350.469 384.244, 350.552 388.284, 352.829 390.345 C 355.326 392.605, 357.254 392.423, 359.826 389.686 C 362.530 386.807, 362.581 384.581, 360 382 C 357.509 379.509, 354.811 379.446, 352.655 381.829 M 454 384.648 C 444.817 386.027, 438.167 387.605, 428.750 390.638 C 417.698 394.197, 414.558 396.576, 422.250 395.562 C 435.214 393.853, 463.207 391.813, 474.500 391.754 C 488.780 391.679, 497.253 393.206, 507.124 397.636 C 514.451 400.924, 516.274 400.365, 511.845 396.187 C 507.836 392.405, 497.777 387.440, 490.040 385.423 C 484.989 384.107, 461.034 383.591, 454 384.648 M 556.509 385.515 C 552.664 386.311, 546.809 388.296, 543.499 389.926 C 537.614 392.823, 531.075 398.408, 532.223 399.557 C 532.541 399.875, 535.008 399.016, 537.705 397.649 C 540.402 396.283, 545.284 394.419, 548.554 393.509 C 556.329 391.343, 581.423 390.443, 594.500 391.859 C 600 392.455, 608.953 393.429, 614.396 394.022 C 624.267 395.099, 628.187 394.775, 626.417 393.029 C 625.913 392.532, 619.200 390.464, 611.500 388.435 C 598.474 385.002, 596.317 384.722, 580.500 384.406 C 568.370 384.164, 561.497 384.481, 556.509 385.515 M 750 442.462 C 750 445.936, 745.518 455.436, 741.914 459.600 C 739.761 462.087, 738 464.522, 738 465.011 C 738 465.500, 740.069 467.610, 742.597 469.700 C 748.899 474.909, 755.782 483.775, 789.313 529.882 C 800.800 545.678, 809.419 556.914, 809.775 556.558 C 810.324 556.009, 807.646 552.050, 798.241 539.511 C 793.699 533.455, 789.424 527.715, 788.741 526.755 C 788.059 525.796, 786.375 523.419, 785 521.474 C 782.907 518.513, 771.909 503.865, 769.253 500.500 C 768.818 499.950, 766.030 496.125, 763.057 492 C 755.216 481.120, 748.037 472.746, 743.750 469.476 C 739.356 466.125, 738.893 463.017, 742.387 460.333 C 745.556 457.900, 749.827 449.934, 750.619 444.980 C 750.969 442.791, 750.973 441, 750.628 441 C 750.283 441, 750 441.658, 750 442.462 M 446.500 465 C 446.872 465.603, 445.538 466, 443.142 466 C 440.853 466, 438.988 466.530, 438.746 467.250 C 438.410 468.247, 438.015 468.244, 436.794 467.236 C 435.951 466.541, 434.191 466.170, 432.881 466.412 C 431.571 466.654, 428.925 466.913, 427 466.989 C 423.819 467.114, 423.710 467.211, 425.802 468.050 C 428.632 469.186, 470.628 469.101, 473.459 467.954 C 475.470 467.139, 475.471 467.126, 473.500 467.048 C 472.042 466.991, 471.855 466.744, 472.810 466.139 C 473.593 465.642, 470.415 465.045, 464.906 464.654 C 451.652 463.713, 445.773 463.824, 446.500 465 M 316 477.428 C 313.525 478.115, 310.150 479.379, 308.500 480.238 C 304.670 482.231, 294.674 492.802, 289.500 500.330 C 287.300 503.531, 281.527 511.614, 276.671 518.291 C 271.815 524.969, 265.410 534.048, 262.439 538.466 C 259.468 542.885, 254.481 550.100, 251.358 554.500 C 237.567 573.925, 231 584.442, 231 587.102 C 231 590.516, 235.084 595.492, 239.906 597.952 C 249.888 603.045, 247.564 602.931, 352.750 603.456 C 406.788 603.725, 451 603.561, 451 603.091 C 451 602.622, 449.425 601.036, 447.500 599.568 C 444.958 597.629, 444 596.126, 444 594.077 C 444 590.968, 451.970 578.103, 456.438 574 L 459.161 571.500 486.330 570.856 C 501.274 570.502, 530.343 570.390, 550.928 570.608 C 582.141 570.937, 588.738 571.254, 590.659 572.513 C 593.615 574.449, 605 591.335, 605 593.782 C 605 594.804, 603.433 597.471, 601.518 599.708 L 598.036 603.776 693.268 603.797 C 794.067 603.819, 798.941 603.622, 807.664 599.172 C 812.632 596.637, 818.001 590.684, 817.997 587.715 C 817.993 585.447, 810.576 574.545, 786.892 542 C 767.717 515.651, 763.523 509.824, 755.227 498 C 743.472 481.247, 740.825 478.993, 730.707 477.123 C 726.135 476.278, 722.856 476.404, 714.727 477.741 C 705.415 479.272, 688.080 479.426, 521 479.461 C 349.715 479.497, 337.001 479.384, 330 477.751 C 321.447 475.756, 321.979 475.768, 316 477.428 M 342 491.206 C 338.250 492.033, 336.217 493.526, 329.804 500.160 C 321.911 508.325, 316 516.274, 316 518.722 C 316 522.051, 322.299 523, 344.395 523 L 365.855 523 367.933 520.358 C 369.076 518.904, 373.193 512.413, 377.081 505.933 C 386.932 489.515, 387.300 489.968, 364.215 490.107 C 354.472 490.166, 344.475 490.661, 342 491.206 M 402.500 490.725 C 400.850 490.959, 398.023 492.569, 396.218 494.303 C 390.521 499.773, 380 516.132, 380 519.519 C 380 519.840, 381.561 520.754, 383.468 521.551 C 387.120 523.077, 412.297 523.608, 422.555 522.375 L 427.609 521.768 433.814 508.634 C 440.243 495.027, 441.108 491.639, 438.418 490.607 C 436.688 489.943, 407.334 490.040, 402.500 490.725 M 463.500 490.764 C 455.612 491.070, 454.302 491.384, 452.898 493.307 C 450.149 497.069, 440 516.593, 440 518.119 C 440 518.916, 441.307 520.341, 442.904 521.284 C 446.108 523.177, 457.210 523.539, 475.304 522.340 C 484.561 521.727, 485.181 521.546, 486.417 519.096 C 488.347 515.268, 493 498.345, 493 495.155 C 493 489.731, 492.411 489.643, 463.500 490.764 M 513 490.874 L 505.500 491.500 503.847 497 C 497.746 517.291, 497.532 519.769, 501.722 521.498 C 504.318 522.570, 542.708 522.061, 545.722 520.916 C 548.250 519.954, 548.274 519.844, 547.624 512.221 C 546.854 503.188, 544.683 493.283, 543.133 491.733 C 541.864 490.464, 524.005 489.955, 513 490.874 M 557.108 491.637 C 555.131 493.021, 554.845 493.909, 555.251 497.387 C 556.208 505.581, 560.294 518.384, 562.728 520.819 C 565.114 523.205, 565.190 523.212, 583.811 522.823 C 605.175 522.377, 607.597 521.734, 606.604 516.770 C 605.805 512.773, 597.299 493.995, 595.271 491.750 C 593.882 490.213, 591.606 490, 576.568 490 C 562.329 490, 559.051 490.276, 557.108 491.637 M 609.949 492.051 C 607.557 494.443, 607.541 494.375, 613.612 508.256 C 620.453 523.898, 618.746 523, 641.640 523 C 657.488 523, 661.549 522.706, 664.386 521.353 C 668.599 519.344, 668.560 519.203, 659.908 504.770 C 650.254 488.667, 652.878 490, 630.826 490 C 613.177 490, 611.872 490.128, 609.949 492.051 M 667.797 490.680 C 665.078 491.396, 664.659 494.733, 666.777 498.790 C 670.624 506.157, 679.938 519.843, 682.167 521.404 C 684.066 522.734, 687.694 522.997, 703.973 522.985 C 722.871 522.970, 731.904 521.844, 732.687 519.405 C 733.509 516.843, 713.136 493.373, 708.358 491.376 C 705.940 490.366, 700.337 490.031, 687.282 490.116 C 677.502 490.180, 668.734 490.434, 667.797 490.680 M 454.090 506.453 C 451.841 510.552, 450 514.110, 450 514.359 C 450 514.609, 450.869 514.586, 451.931 514.308 C 452.997 514.029, 453.638 513.221, 453.363 512.503 C 452.813 511.069, 457.602 500.934, 459.381 499.765 C 460.194 499.231, 460.183 499.026, 459.340 499.015 C 458.703 499.007, 456.340 502.354, 454.090 506.453 M 466.728 500.722 C 468.503 500.943, 471.653 500.946, 473.728 500.730 C 475.802 500.513, 474.350 500.333, 470.500 500.328 C 466.650 500.324, 464.952 500.501, 466.728 500.722 M 307.468 531.163 C 305.746 532.674, 301.562 537.813, 298.169 542.583 C 291.474 551.995, 290.603 555.425, 294.103 558.595 C 296.013 560.325, 298.236 560.529, 318.363 560.816 C 331.117 560.999, 341.604 560.721, 343.074 560.162 C 345.725 559.154, 359.962 537.647, 360.768 533.432 C 361.450 529.866, 357.169 529.145, 333.049 528.767 L 310.597 528.415 307.468 531.163 M 453.667 528.975 C 440.356 529.446, 438.677 529.705, 437.310 531.500 C 434.054 535.777, 428 549.560, 428 552.697 C 428 556.344, 430.603 559.614, 434.225 560.516 C 435.476 560.828, 477.290 560.952, 527.146 560.791 C 614.661 560.510, 617.864 560.434, 619.896 558.595 C 621.053 557.547, 622 555.735, 622 554.569 C 622 551.356, 611.332 530.345, 609.288 529.532 C 607.169 528.689, 475.108 528.217, 453.667 528.975 M 647.500 529.016 C 636.500 529.378, 626.712 530.021, 625.750 530.444 C 624.788 530.868, 624 532.020, 624 533.005 C 624 536.161, 633.018 552.935, 636.920 557.036 L 640.690 561 662.190 561 C 681.749 561, 683.839 560.835, 685.345 559.171 C 688.105 556.121, 687.258 552.560, 681.334 542.306 C 674.593 530.639, 672.347 527.940, 669.576 528.178 C 668.434 528.277, 658.500 528.653, 647.500 529.016 M 708.500 528.946 C 698.600 529.251, 689.938 529.864, 689.250 530.309 C 688.563 530.754, 688 532.129, 688 533.364 C 688 535.944, 696.980 551.407, 701.634 556.841 L 704.768 560.500 728.480 560.802 C 748.725 561.060, 752.544 560.874, 754.596 559.529 C 757.958 557.326, 757.676 553.424, 753.750 547.841 C 751.962 545.298, 748.971 541.031, 747.103 538.359 C 740.318 528.654, 739.348 527.977, 732.563 528.196 C 729.228 528.304, 718.400 528.642, 708.500 528.946 M 375.770 530.250 C 373.970 531.645, 366.036 543.096, 363.584 547.837 C 361.172 552.502, 361.551 556.501, 364.635 558.927 C 367.110 560.874, 368.540 561, 388.201 561 C 401.472 561, 409.881 560.599, 411.181 559.903 C 413.648 558.583, 425.408 534.506, 424.606 532.417 C 423.535 529.625, 418.692 529, 398.126 529 C 383.058 529, 376.941 529.342, 375.770 530.250 M 818 547.737 C 815.147 548.267, 814.020 549.628, 814.055 552.500 C 814.076 554.176, 814.321 554.055, 815.572 551.750 C 817.061 549.005, 821.206 547.906, 822.454 549.925 C 823.120 551.003, 821.295 555.620, 819.064 558.500 C 817.880 560.028, 818.139 559.949, 820.162 558.165 C 823.249 555.443, 824.871 549.168, 822.823 547.869 C 822.095 547.408, 821.275 547.085, 821 547.151 C 820.725 547.218, 819.375 547.481, 818 547.737 M 228.377 549.459 C 227.059 552.895, 231.866 561, 235.223 561 C 236.372 561, 236.167 552.180, 234.965 549.934 C 233.743 547.652, 229.197 547.323, 228.377 549.459 M 813.430 562.885 C 815.142 565.423, 818.435 570.003, 820.749 573.062 C 825.909 579.884, 827.877 585.247, 828.672 594.654 C 829.882 608.961, 826.017 620.132, 816.666 629.358 C 813.401 632.580, 811.638 634.729, 812.749 634.134 C 817.814 631.423, 828.047 618.057, 828.929 613 C 829.073 612.175, 829.402 606.396, 829.659 600.158 C 830.240 586.109, 828.618 579.973, 822.233 572.063 C 819.819 569.072, 816.870 564.934, 815.681 562.866 C 814.491 560.799, 812.797 558.919, 811.917 558.689 C 810.785 558.393, 811.228 559.620, 813.430 562.885 M 457.095 586.872 C 454.293 590.652, 452 594.059, 452 594.443 C 452 594.827, 454.587 595.073, 457.750 594.989 C 460.913 594.905, 471.379 594.873, 481.009 594.918 C 497.758 594.996, 498.577 595.093, 499.852 597.134 C 501.600 599.933, 500.328 600.709, 493.747 600.857 C 488.613 600.973, 487.134 601.467, 488.334 602.667 C 489.535 603.869, 564.316 603.609, 566.365 602.396 C 567.986 601.436, 567.693 601.207, 564.115 600.634 C 561.500 600.216, 560 599.450, 560 598.534 C 560 596.725, 564.740 591.896, 566.323 592.091 C 569.615 592.499, 570.792 591.920, 570.323 590.126 C 569.941 588.667, 570.481 588.156, 572.756 587.822 C 576.468 587.278, 578 587.792, 578 589.583 C 578 592.273, 579.866 590.993, 579.944 588.250 C 580.105 582.537, 580.224 582.335, 583.319 582.519 C 586.056 582.682, 586.152 582.584, 584.462 581.348 C 582.963 580.253, 571.338 580, 522.404 580 L 462.189 580 457.095 586.872 M 586.831 581.629 C 587.397 582.658, 589.276 585.075, 591.006 587 L 594.152 590.500 590.847 585.668 C 587.498 580.770, 584.943 578.201, 586.831 581.629 M 584.482 587.817 C 584.527 589.500, 583.799 590.953, 582.527 591.715 C 580.833 592.730, 580.778 592.935, 582.191 592.965 C 583.121 592.984, 584.165 592.543, 584.510 591.984 C 584.856 591.425, 585.602 591.254, 586.169 591.604 C 586.863 592.034, 586.885 591.631, 586.235 590.371 C 585.704 589.342, 585.458 587.979, 585.688 587.342 C 585.918 586.705, 585.724 585.947, 585.257 585.659 C 584.791 585.371, 584.442 586.342, 584.482 587.817 M 518.250 588.706 C 516.438 589.055, 516 589.807, 516 592.570 C 516 594.748, 515.552 595.909, 514.774 595.750 C 514.099 595.612, 513.392 596.522, 513.202 597.770 C 512.861 600.005, 512.988 600.034, 521.332 599.638 C 525.994 599.417, 530.302 598.932, 530.904 598.559 C 532.379 597.648, 532.302 590.702, 530.800 589.200 C 529.652 588.052, 523.004 587.790, 518.250 588.706 M 229.006 600.631 C 229.051 607.775, 236.561 614.502, 246.998 616.747 C 252.456 617.921, 293.034 618.174, 499.750 618.323 C 635.187 618.420, 746 618.193, 746 617.817 C 746 616.574, 750.183 615.783, 751.228 616.828 C 751.860 617.460, 753.125 617.523, 754.524 616.991 C 755.773 616.516, 757.021 616.354, 757.298 616.631 C 758.952 618.285, 786.927 618.448, 794 616.844 C 801.260 615.199, 808.625 612.028, 810.959 609.544 L 813.129 607.234 803.814 609.701 L 794.500 612.168 525.886 612.025 C 303.066 611.906, 256.159 611.649, 250.742 610.515 C 243.786 609.060, 237.537 606.262, 232.250 602.237 C 230.463 600.876, 229.003 600.154, 229.006 600.631 M 807.539 636.198 C 806.460 636.824, 803.760 637.905, 801.539 638.601 C 799.317 639.297, 798.400 639.886, 799.500 639.911 C 801.621 639.959, 810 636.478, 810 635.549 C 810 634.823, 809.836 634.866, 807.539 636.198 M 757.728 641.722 C 759.503 641.943, 762.653 641.946, 764.728 641.730 C 766.802 641.513, 765.350 641.333, 761.500 641.328 C 757.650 641.324, 755.952 641.501, 757.728 641.722 M 334 667.979 C 309.264 668.600, 305.573 669.226, 297 674.257 C 282.049 683.030, 276.802 696.678, 276.725 727 C 276.688 741.290, 276.892 743.077, 279.332 749.894 C 284.542 764.447, 291.048 771.792, 302.964 776.571 C 312.803 780.516, 324.733 780.969, 412.500 780.727 C 473.758 780.558, 492.903 780.799, 497.745 781.798 C 501.180 782.507, 512.655 783.253, 523.245 783.457 C 533.835 783.660, 543.229 784.117, 544.121 784.471 C 545.036 784.834, 546.436 784.421, 547.335 783.522 C 548.212 782.646, 549.057 782.006, 549.214 782.100 C 549.371 782.194, 554.900 781.914, 561.500 781.479 C 568.100 781.043, 608.600 780.628, 651.500 780.556 L 729.500 780.426 736 778.128 C 746.940 774.259, 754.971 766.859, 760.559 755.500 C 764.960 746.553, 766.004 740.703, 765.983 725.114 C 765.962 709.936, 764.245 700.979, 759.517 691.368 C 755.046 682.283, 745.713 673.234, 737.317 669.847 L 731.500 667.500 544.500 667.444 C 441.650 667.414, 346.925 667.654, 334 667.979 M 283.059 673.177 C 278.399 677.837, 271.631 688.899, 270.625 693.500 C 270.265 695.150, 271.747 692.792, 273.919 688.259 C 276.337 683.215, 279.890 677.881, 283.080 674.509 C 289.171 668.068, 289.155 667.080, 283.059 673.177 M 759.391 674.914 C 761.361 677.342, 764.657 682.601, 766.716 686.601 C 768.776 690.601, 770.641 693.692, 770.863 693.470 C 771.852 692.481, 764.271 679.410, 760.254 675.180 L 755.810 670.500 759.391 674.914 M 314.432 681.513 C 314.069 683.445, 314.063 687.382, 314.418 690.263 C 314.773 693.143, 315.087 709.078, 315.115 725.672 C 315.154 748.993, 315.465 756.254, 316.483 757.647 C 317.697 759.307, 319.993 759.451, 345.651 759.474 L 373.500 759.500 373.789 750.771 L 374.077 742.042 353.789 741.771 L 333.500 741.500 333.880 710.401 L 334.260 679.301 331.880 678.664 C 330.571 678.314, 326.258 678.021, 322.295 678.014 L 315.091 678 314.432 681.513 M 724.048 681.798 C 718.134 687.712, 721.024 697.355, 729.095 698.639 C 732.149 699.125, 733.239 698.729, 736.345 696.002 C 739.587 693.156, 740 692.256, 740 688.051 C 740 682.183, 737.879 679.966, 731.588 679.257 C 727.580 678.805, 726.767 679.079, 724.048 681.798 M 727.238 686.162 C 725.295 688.105, 725.785 691.736, 728.222 693.443 C 730.269 694.877, 730.601 694.844, 732.423 693.021 C 734.035 691.409, 734.222 690.530, 733.431 688.272 C 732.371 685.246, 729.226 684.174, 727.238 686.162 M 406.195 694.025 C 396.090 696.112, 386.132 704.138, 381.682 713.783 C 378.391 720.916, 378.628 733.495, 382.199 741.196 C 385.415 748.132, 391.796 754.711, 398.500 758.002 C 402.783 760.105, 404.934 760.460, 413.500 760.479 C 422.393 760.498, 424.109 760.199, 429 757.779 C 434.008 755.302, 443.841 748.211, 443.948 747 C 443.973 746.725, 441.049 744.978, 437.452 743.118 L 430.911 739.735 428.677 741.834 C 423.751 746.462, 413.009 748.315, 406.718 745.623 C 402.980 744.024, 398.316 739.318, 397.834 736.659 C 397.519 734.920, 398.844 734.798, 421.745 734.471 C 435.079 734.281, 446.497 733.811, 447.119 733.427 C 447.885 732.953, 448.038 730.603, 447.593 726.114 C 445.536 705.379, 425.694 689.998, 406.195 694.025 M 478.500 693.436 C 477.950 693.652, 473.563 695.071, 468.750 696.590 C 463.938 698.110, 460 699.714, 460 700.157 C 460 701.646, 467.051 712, 468.066 712 C 468.618 712, 470.130 711.306, 471.425 710.457 C 474.431 708.487, 483.221 707.086, 488.298 707.767 C 493.149 708.417, 500 714.465, 500 718.095 L 499.999 720.500 486.250 720.500 C 472.935 720.500, 472.334 720.592, 467.246 723.411 C 457.491 728.816, 453.875 736.391, 456.565 745.789 C 461.069 761.527, 481.506 767.130, 495.485 756.459 C 497.978 754.557, 500.167 753, 500.350 753 C 500.534 753, 501.223 754.800, 501.882 757 L 503.080 761 509.418 761 C 513.629 761, 516.145 760.530, 516.917 759.600 C 518.506 757.685, 516.634 715.869, 514.709 710.281 C 512.660 704.333, 508.614 699.653, 502.754 696.454 C 498.246 693.992, 496.223 693.546, 488.500 693.314 C 483.550 693.166, 479.050 693.221, 478.500 693.436 M 564.500 694.504 C 562.300 695.282, 558.617 697.905, 556.316 700.331 L 552.132 704.743 551.508 701.047 C 551.164 699.014, 551.022 696.709, 551.192 695.925 C 551.438 694.788, 549.636 694.442, 542.280 694.213 L 533.060 693.926 533.087 726.939 C 533.102 745.096, 533.426 760.085, 533.807 760.247 C 534.188 760.410, 538.378 760.389, 543.117 760.201 L 551.734 759.861 552.203 742.180 C 552.597 727.340, 552.994 723.777, 554.674 720 C 557.399 713.873, 559.289 712.583, 566.401 712 C 572.499 711.500, 572.500 711.499, 574.791 706.885 C 577.821 700.781, 578.746 695.086, 576.897 693.915 C 574.842 692.614, 569.065 692.888, 564.500 694.504 M 587.236 726.106 L 587.500 759.453 596 759.130 C 600.993 758.941, 604.803 758.332, 605.235 757.654 C 605.639 757.019, 605.976 747.852, 605.985 737.283 L 606 718.067 609.519 714.548 C 613.895 710.171, 617.210 709.279, 622.345 711.095 C 629.611 713.664, 630.329 715.668, 631.193 735.778 C 631.611 745.525, 632.221 755.024, 632.548 756.887 L 633.142 760.274 639.987 759.638 C 643.752 759.288, 647.477 758.754, 648.265 758.452 C 649.411 758.012, 649.837 753.797, 650.397 737.355 C 650.994 719.817, 650.860 716.095, 649.482 711.947 C 647.466 705.877, 640.086 697.838, 634 695.082 C 625.502 691.233, 614.979 693.246, 607.775 700.099 L 603.727 703.950 604.317 698.975 L 604.906 694 598.203 693.986 C 594.516 693.979, 590.481 693.700, 589.236 693.366 L 586.973 692.760 587.236 726.106 M 684.052 695.120 C 679.787 696.406, 672.935 701.244, 670.266 704.854 C 664.694 712.390, 663.506 716.107, 663.503 726 C 663.500 734.687, 663.757 735.964, 666.500 740.919 C 670.624 748.368, 677.207 755.438, 682.327 757.916 C 688.634 760.969, 697.380 761.613, 704.485 759.547 C 709.144 758.193, 711.620 756.611, 716.673 751.758 C 725.244 743.528, 728.509 736.816, 728.473 727.500 C 728.439 718.690, 725.964 712.957, 719.028 705.623 C 712.249 698.456, 704.031 694.672, 694.500 694.331 C 690.650 694.194, 685.949 694.549, 684.052 695.120 M 771.042 695.050 C 771.066 695.298, 771.736 697.975, 772.533 701 L 773.981 706.500 773.408 701.500 C 773.093 698.750, 772.422 696.072, 771.918 695.550 C 771.413 695.028, 771.019 694.803, 771.042 695.050 M 774.447 724.790 C 774.476 734.699, 774.831 742.287, 775.235 741.653 C 776.184 740.163, 776.089 711.085, 775.127 708.637 C 774.724 707.612, 774.418 714.881, 774.447 724.790 M 407.001 709.123 C 402.564 710.893, 397 717.473, 397 720.950 C 397 721.639, 402.495 722, 413 722 C 430.697 722, 430.793 721.957, 426.726 715.922 C 422.028 708.950, 414.200 706.253, 407.001 709.123 M 689.001 710.072 C 682.894 712.632, 679 718.595, 679 725.385 C 679 731.412, 680.011 733.714, 685.144 739.382 C 688.860 743.484, 690.174 744.267, 694.084 744.707 C 699.895 745.361, 704.120 743.287, 707.556 738.095 C 710.957 732.955, 711.173 723.860, 708.027 718.263 C 704.109 711.290, 695.221 707.464, 689.001 710.072 M 266.336 725 C 266.336 729.125, 266.513 730.813, 266.728 728.750 C 266.944 726.688, 266.944 723.313, 266.728 721.250 C 266.513 719.188, 266.336 720.875, 266.336 725 M 479.643 733.010 C 472.934 735.063, 471.209 739.806, 475.399 744.678 C 477.516 747.139, 478.486 747.467, 483.654 747.467 C 488.040 747.467, 490.455 746.882, 493.279 745.137 C 497.457 742.554, 500.287 738.026, 499.811 734.682 C 499.522 732.652, 498.909 732.487, 491 732.318 C 486.325 732.217, 481.214 732.529, 479.643 733.010 M 766.529 764.209 C 765.031 767.119, 761.486 771.975, 758.652 775 L 753.500 780.499 758.793 775.500 C 763.638 770.923, 770.739 760.406, 769.692 759.358 C 769.450 759.117, 768.026 761.300, 766.529 764.209 M 274.698 763.750 C 275.663 766.410, 282.538 774.857, 285.698 777.266 C 287.239 778.440, 286.194 776.922, 283.375 773.893 C 280.556 770.863, 277.507 766.948, 276.599 765.192 C 274.827 761.766, 273.655 760.877, 274.698 763.750" stroke="none" fill="#e7e4eb" fill-rule="evenodd"/></svg>